# xmcd
#
# Track frame offsets:
#	150
#	16328
#	32489
#	48376
#	61332
#	74779
#	89096
#	103239
#	118334
#	129775
#	144194
#	167075
#	214169
#	224427
#
# Disc length: 3300 seconds
#
# Revision: 10
# Processed by: cddbd v1.5.2PL0 Copyright (c) Steve Scherf et al.
# Submitted via: EasyCDDAExtractor 12.0.1.1
#
DISCID=d40ce20e
DTITLE=Eric Clapton - Eric Clapton <Deluxe Edition> (Disc-1: The Released Mix 
DTITLE=Mixed by Tom Dowd) CD1
DYEAR=1970
DGENRE=Blues
TTITLE0=Slunky
TTITLE1=Bad Boy
TTITLE2=Lonesome And A Long Way From Home
TTITLE3=After Midnight
TTITLE4=Easy Now
TTITLE5=Blues Power
TTITLE6=Bottle Of Red Wine
TTITLE7=Lovin' You Lovin' Me
TTITLE8=I've Told You For The Last Time
TTITLE9=Don't Know Why
TTITLE10=Let It Rain
TTITLE11=Blues In "A"
TTITLE12=Teasin' - King Curtis with Delaney Bramlett, Eric Clapton and Friends
TTITLE13=She Rides ("Let It Rain" Original Version)
EXTD=YEAR: 2006
EXTT0=
EXTT1=
EXTT2=
EXTT3=
EXTT4=
EXTT5=
EXTT6=
EXTT7=
EXTT8=
EXTT9=
EXTT10=
EXTT11=
EXTT12=
EXTT13=
PLAYORDER=
